<?xml version="1.0" encoding="UTF-8"?>
<svg width="80px" height="80px" viewBox="0 0 80 80" version="1.1" xmlns="http://www.w3.org/2000/svg" xmlns:xlink="http://www.w3.org/1999/xlink">
    <title>網站佔位圖標</title>
    <defs>
        <linearGradient x1="0%" y1="0%" x2="100%" y2="100%" id="linearGradient">
            <stop stop-color="#e2211c" stop-opacity="0.8" offset="0%"></stop>
            <stop stop-color="#e2211c" stop-opacity="0.2" offset="100%"></stop>
        </linearGradient>
    </defs>
    <g stroke="none" stroke-width="1" fill="none" fill-rule="evenodd">
        <circle fill="url(#linearGradient)" cx="40" cy="40" r="36"></circle>
        <path d="M40,20 C49.941,20 58,28.059 58,38 C58,47.941 49.941,56 40,56 C30.059,56 22,47.941 22,38 C22,28.059 30.059,20 40,20 Z M40,24 C32.268,24 26,30.268 26,38 C26,45.732 32.268,52 40,52 C47.732,52 54,45.732 54,38 C54,30.268 47.732,24 40,24 Z" fill="#FFFFFF" fill-rule="nonzero"></path>
        <rect fill="#FFFFFF" x="38" y="14" width="4" height="12" rx="2"></rect>
        <rect fill="#FFFFFF" x="38" y="54" width="4" height="12" rx="2"></rect>
        <rect fill="#FFFFFF" transform="translate(64.000000, 38.000000) rotate(90.000000) translate(-64.000000, -38.000000) " x="62" y="32" width="4" height="12" rx="2"></rect>
        <rect fill="#FFFFFF" transform="translate(16.000000, 38.000000) rotate(90.000000) translate(-16.000000, -38.000000) " x="14" y="32" width="4" height="12" rx="2"></rect>
    </g>
</svg> 